<?xml version="1.0" encoding="utf-8"?>
<!-- Generator: Adobe Illustrator 15.1.0, SVG Export Plug-In . SVG Version: 6.00 Build 0)  -->
<!DOCTYPE svg PUBLIC "-//W3C//DTD SVG 1.1//EN" "http://www.w3.org/Graphics/SVG/1.1/DTD/svg11.dtd">
<svg version="1.1" id="Layer_1" xmlns="http://www.w3.org/2000/svg" xmlns:xlink="http://www.w3.org/1999/xlink" x="0px" y="0px"
	 width="800px" height="450px" viewBox="0 0 800 450" enable-background="new 0 0 800 450" xml:space="preserve">
<g>
	<rect x="878.993" y="-133.518" fill="none" stroke="#001E39" stroke-miterlimit="10" width="276.205" height="216.485"/>
	<rect x="932.314" y="-123.92" fill="none" stroke="#001E39" stroke-miterlimit="10" width="171.162" height="42.123"/>
	<rect x="932.314" y="-72.199" fill="none" stroke="#001E39" stroke-miterlimit="10" width="171.162" height="21.062"/>
	<rect x="932.314" y="-41.272" fill="none" stroke="#001E39" stroke-miterlimit="10" width="171.162" height="124.239"/>
	<g>
		<path fill="#001E39" d="M982.371-111.525c0,5.066,0.239,10.158,0.239,15.278c0,0.533-0.026,1.094-0.133,1.6
			c-0.398,0.159-0.854,0.213-1.28,0.213c-1.093,0-1.278-0.453-1.278-1.119c0-0.32,0.053-0.693,0.053-1.093
			c0-1.947-0.053-3.866-0.08-5.813c-0.479,1.413-0.719,3.387-1.812,3.387c-0.293,0-0.533-0.053-0.8-0.053h-0.188
			c-0.613-1.04-0.933-2.374-1.387-3.493c0.082,1.493,0.108,2.933,0.108,4.426c0,0.96,0,2.693-0.268,3.573
			c-0.267,0.106-0.587,0.16-0.88,0.16c-0.533,0-1.066-0.134-1.545-0.401c-0.055-1.439-0.027-0.746-0.027-4.692
			c0-4.292,0.053-11.758,0.533-12.21c0.373-0.054,0.692-0.24,1.066-0.24c1.066,0,2.212,5.119,3.065,7.466l1.813-5.307
			c0.159-0.506,0.32-1.146,0.588-1.6l0.159-0.107c0,0,1.307-0.212,1.386-0.212C981.945-111.763,982.186-111.657,982.371-111.525z"/>
		<path fill="#001E39" d="M986.396-92.06c-0.319-0.213-0.452-0.32-0.56-0.721c0.107-0.213,0.187-0.426,0.293-0.586h-0.026
			l0.053-0.054l0.054-0.08c0.187-0.347,0.56-0.905,0.986-1.013l0.427,0.267h-0.026c0.187,0.133,0.372,0.293,0.613,0.293
			c0.506,0,0.666-0.533,0.746-0.933c-0.24,0.08-0.507,0.106-0.746,0.106c-3.333,0-3.546-4.399-3.546-7.333v-1.306
			c0-0.96-0.107-1.974-0.107-2.933c0-0.32,0.054-0.827,0.24-1.066c0.293,0.026,0.587,0.053,0.906,0.053
			c0.294,0,0.613-0.026,0.906-0.053c0.214,0.533,0.293,1.066,0.293,1.6c0,0.48-0.026,0.96-0.026,1.439
			c0,2.026,0.107,6.453,1.254,6.453c1.067,0,1.093-1.946,1.093-3.094c0-1.546-0.08-3.119-0.134-4.664v-0.108
			c0-0.106-0.026-0.238-0.026-0.346c0-0.08,0.026-0.213,0.026-0.294c-0.026-0.106-0.026-0.239-0.026-0.346
			c0-0.613,0.799-0.693,1.308-0.693c0.346,0,0.665,0.054,1.039,0.08c0.186,0.826,0.267,1.707,0.267,2.559
			c0,0.773-0.027,1.521-0.027,2.293c0,0.8,0.027,1.601,0.027,2.427c0,1.68,0.586,8.639-3.84,8.639c-0.32,0-1.227-0.427-1.493-0.613
			L986.396-92.06z"/>
		<path fill="#001E39" d="M1009.218-94.62c-0.266-0.427-1.572-7.546-1.705-8.426c-0.48,2.586-1.066,5.173-1.44,7.759
			c-0.079,0.453-0.213,0.613-0.64,0.72l0.026-0.026c-0.239,0.08-0.479,0.08-0.72,0.08c-0.187,0-0.479,0-0.693-0.08
			c-0.506-0.16-2.506-7.893-2.72-8.985c-0.347-1.732-0.586-3.545-0.879-5.306c-0.106-0.72-0.4-1.947-0.4-2.667
			c0-0.212,1.386-0.212,1.601-0.212c0.479,0,0.959,0,1.466,0.053c0.105,0.853,0.053,1.707,0.133,2.532
			c0.053,0.641,0.24,1.28,0.373,1.92l0.746,3.866c0.134,0.693,0.241,1.413,0.294,2.134c0.267-1.094,1.226-8.052,1.573-8.372
			c0.213-0.188,0.586-0.214,0.826-0.214c0.373,0,0.986,0.079,1.279,0.32c0.428,0.346,1.866,8.345,1.92,9.358
			c0.348-1.974,0.374-4.214,0.64-6.293c0.08-0.666,0.692-5.706,1.147-5.946c0.159,0.027,0.292,0.054,0.453,0.054
			c0.053,0,0.133-0.026,0.186-0.026c0.373,0,1.36,0.347,1.733,0.479c-0.24,2.294-0.56,4.64-0.96,6.906
			c-0.16,0.826-1.707,9.865-1.812,10.051c-0.294,0.427-0.986,0.507-1.467,0.507C1009.858-94.433,1009.484-94.487,1009.218-94.62z"/>
		<path fill="#001E39" d="M1021.802-97.847c0,2.001-1.813,3.413-3.732,3.413c-3.279,0-3.547-4.506-3.547-6.905
			c0-2.479,0.907-5.866,3.946-5.866c3.173,0,3.066,3.84,3.066,6.239c0,0.773-2.586,0.88-4.507,0.88v0.506
			c0,0.747,0.054,2.613,1.12,2.613c0.987,0,1.066-1.359,1.227-2.079C1020.043-99.046,1021.802-98.752,1021.802-97.847z
			 M1017.11-102.619c0.266,0.053,0.531,0.053,0.799,0.053c0.506,0,0.96-0.053,1.44-0.133c0-0.48-0.268-2.079-0.935-2.079
			C1017.429-104.779,1017.19-103.365,1017.11-102.619z"/>
		<path fill="#001E39" d="M1025.136-94.459c-0.802,0-1.067-0.134-1.067-0.907c0-2.639-0.241-5.306-0.241-7.972
			c0-1.84,0.267-3.732,0.267-5.545c0-0.373-0.052-0.721-0.052-1.094c0-1.013,0.319-1.333,1.305-1.333
			c0.854,0,1.121,0.479,1.121,1.307c0,0.292-0.028,0.639-0.08,0.933v-0.026c-0.053,0.267-0.053,0.507-0.053,0.772v0.747
			c0,0.187,0,0.373-0.027,0.561c0.294-0.08,0.587-0.106,0.879-0.106c2.64,0,3.521,2.212,3.521,4.531c0,0.987-0.106,2.026-0.24,3.013
			c-0.293,1.946-0.16,4.639-3.413,4.639c-0.214,0-0.399-0.026-0.586-0.053C1026.468-94.433,1025.561-94.459,1025.136-94.459z
			 M1026.414-97.82v-0.027c0.161,0.32,0.508,0.427,0.826,0.427c1.255,0,1.066-4.265,1.066-6.132c0-0.692-0.266-1.332-1.066-1.332
			c-0.692,0-1.146,0.532-1.146,1.199C1026.094-103.072,1026.12-98.273,1026.414-97.82z"/>
		<path fill="#001E39" d="M1039.771-98.005c0,0.692-0.214,1.626-0.64,2.213v-0.027c-0.612,0.934-1.732,1.414-2.826,1.414
			c-1.013,0-1.946-0.348-2.72-0.961v0.026c-0.294-0.186-0.906-0.905-0.906-1.252c0.187-0.428,1.279-1.227,1.76-1.227
			c0.373,0,1.173,1.039,2,1.039c0.399,0,0.64-0.72,0.64-1.039c0-1.067-1.334-2.187-2.105-2.8c-1.308-0.986-2.107-1.573-2.107-3.387
			c0-1.866,1.627-3.386,3.439-3.386c0.267,0,0.533,0.026,0.801,0.133v-0.026c0.8,0.188,2.266,0.934,2.266,1.68
			c-0.267,0.4-1.334,1.306-1.787,1.306c-0.187,0-0.612-0.612-1.279-0.612c-0.532,0-0.773,0.427-0.773,0.906
			c0,0.881,0.88,1.52,1.493,2h-0.027C1038.278-101.073,1039.771-99.712,1039.771-98.005z"/>
		<path fill="#001E39" d="M1043.21-110.35c0.666,0,1.146,0.479,1.146,1.04c0,0.426-0.346,1.306-1.333,1.306
			c-1.067,0-1.227-0.4-1.227-1.04c0-0.347,0.159-0.721,0.559-1.066C1042.649-110.271,1042.97-110.35,1043.21-110.35z
			 M1043.528-107.206c0.881,0,1.067,0.16,1.067,1.014c0,2.746-0.348,5.492-0.348,8.239c0,0.905,0.135,1.812,0.135,2.692
			c0,0.64-0.372,0.746-0.934,0.746c-0.32,0-0.667,0-0.986-0.106h0.027c-0.054,0-0.135-0.026-0.188-0.026
			c-0.079,0-0.16,0.026-0.24,0.026c-0.106-0.399-0.16-0.8-0.16-1.173c0-2.479,0.079-4.959,0.079-7.439
			c0-1.012-0.079-2.025-0.079-3.013c0-0.96,0.854-0.879,0.936-0.905L1043.528-107.206z"/>
		<path fill="#001E39" d="M1050.195-106.724c0.666,0.053,1.306,0,1.945,0.159l-0.027,0.268c0.08,0.267,0.134,0.532,0.134,0.826
			c0,0.826-0.479,0.853-1.12,0.853h-0.986c-0.026,0.48-0.026,0.986-0.026,1.467c0,2-0.08,6.266,0.506,6.372
			c0.241-0.079,0.241-0.267,0.587-0.267c0.213,0,1.467,0.987,1.467,1.174c0,0.933-1.2,1.439-2.001,1.439
			c-0.427,0-0.958-0.24-1.359-0.428l-0.107-0.025c-1.225-0.693-1.277-2.507-1.277-3.76c0-1.866,0-3.893-0.241-5.865
			c-0.105-0.026-0.24-0.026-0.346-0.026c-0.159,0-0.32,0.026-0.479,0.026c-0.321,0-0.48-0.746-0.48-1.387
			c0-1.173,0.64-0.853,1.174-0.853c0-0.641-0.028-1.228-0.028-1.84c0-1.146,0.747-1.066,1.468-1.066
			c0.239,0,0.479,0.026,1.012,0.319C1050.089-108.484,1050.141-107.605,1050.195-106.724z"/>
		<path fill="#001E39" d="M1060.779-97.847c0,2.001-1.812,3.413-3.731,3.413c-3.279,0-3.548-4.506-3.548-6.905
			c0-2.479,0.906-5.866,3.947-5.866c3.173,0,3.064,3.84,3.064,6.239c0,0.773-2.585,0.88-4.505,0.88v0.506
			c0,0.747,0.054,2.613,1.12,2.613c0.986,0,1.066-1.359,1.226-2.079C1059.02-99.046,1060.779-98.752,1060.779-97.847z
			 M1056.087-102.619c0.267,0.053,0.533,0.053,0.799,0.053c0.508,0,0.961-0.053,1.44-0.133c0-0.48-0.267-2.079-0.933-2.079
			C1056.406-104.779,1056.166-103.365,1056.087-102.619z"/>
	</g>
	<g>
		<path fill="#001E39" d="M961.897-62.223c0.045-1.299,0.238-2.567,0.238-3.852c0-0.403,0.014-0.717,0.492-0.717
			c0.478,0,0.866,0.21,0.866,0.731c0,1.523-0.119,3.046-0.194,4.569c-0.06,1.388-0.089,2.791-0.194,4.181
			c-0.269,0-0.522,0.088-0.806,0.088c-0.522,0-0.507-0.67-0.507-1.104c0-0.852,0.029-1.731,0.074-2.582c-0.508,0-1-0.06-1.494-0.06
			h-0.104c-0.016,1.134,0.016,3.538-0.373,3.658c-0.119,0.044-0.419,0.06-0.538,0.06c-0.148,0-0.552-0.03-0.552-0.255
			c0-0.552,0.089-1.209,0.089-1.866v-1.074c0-1.762,0.12-3.509,0.12-5.256c0-0.149-0.03-0.298-0.03-0.447
			c0-0.657,0.344-0.672,0.852-0.672c0.523,0,0.553,0.119,0.553,0.566c0,0.836-0.06,1.658-0.06,2.509v1.194v0.269
			c0.492,0,0.984,0.06,1.477,0.06H961.897L961.897-62.223z"/>
		<path fill="#001E39" d="M967.57-57.371c-0.09,0.045-0.239,0.134-0.358,0.134c-0.015,0-0.03,0-0.045-0.014
			c-0.09,0.014-0.194,0.028-0.283,0.028c-0.134,0-0.254,0-0.359-0.044l-0.356-0.06h0.014c-0.12-0.015-0.194-0.075-0.298-0.134
			c-1.149-0.553-1.3-1.643-1.3-3.166c0-1.225,0.344-3.358,1.927-3.358c0.193,0,0.402,0.014,0.597,0.088h-0.015
			c1.479,0.583,1.701,2.479,1.701,3.868c0,0.343-0.238,2.209-1.238,2.657H967.57z M965.823-60.46c0.135,0.716-0.135,2.03,0.941,2.03
			c0.656,0,0.492-1.553,0.492-2.105c0-0.716-0.045-2.195-0.597-2.195c-0.582,0-0.852,1.613-0.852,2.075
			C965.809-60.595,965.809-60.521,965.823-60.46z"/>
		<path fill="#001E39" d="M972.527-57.326c0.029-0.566,0.044-1.12,0.044-1.688c0-0.672-0.059-1.329-0.059-2
			c0-0.135,0.015-0.329,0.015-0.553c0-0.611-0.089-1.374-0.657-1.374c-0.553,0-0.598,0.538-0.598,0.971
			c0,1.389,0.194,2.763,0.194,4.136c0,0.701-0.388,0.611-0.821,0.611c-0.522,0-0.536-0.254-0.536-0.521
			c0-0.119,0.014-0.254,0.014-0.373c0-1.852-0.165-3.704-0.165-5.554c0-0.209,0.045-0.613,0.315-0.613
			c0.223,0,0.851-0.089,0.925,0.27c0.313-0.179,0.657-0.284,1.03-0.284s0.866,0.299,1.12,0.567h0.015
			c0.179-0.224,0.448-0.373,0.717-0.479h-0.016c0.18-0.089,0.373-0.119,0.568-0.119c0.224,0,0.433,0.045,0.642,0.149h-0.016
			c1.194,0.493,1.135,1.911,1.285,2.941c0.134,0.94,0.134,1.956,0.134,2.867c0,0.373-0.016,0.761-0.165,1.045
			c-0.06,0-0.119-0.015-0.164-0.015c-0.253,0-0.492,0.09-0.761,0.09c-0.552,0-0.522-0.955-0.522-1.509
			c0-0.493,0.045-0.971,0.045-1.479c0-0.373-0.045-1.537-0.149-1.851v0.015c-0.03-0.074-0.045-0.134-0.061-0.209h0.016
			c-0.06-0.225-0.194-0.657-0.462-0.657c-0.165,0-0.629,0.746-0.658,0.911c-0.029,0.148-0.029,0.313-0.029,0.463
			c0,1.388,0.135,2.777,0.179,4.165L972.527-57.326z"/>
		<path fill="#001E39" d="M981.978-59.132c0,1.12-1.015,1.91-2.09,1.91c-1.836,0-1.986-2.522-1.986-3.866
			c0-1.388,0.508-3.284,2.21-3.284c1.776,0,1.718,2.149,1.718,3.494c0,0.433-1.449,0.491-2.523,0.491v0.284
			c0,0.418,0.029,1.463,0.627,1.463c0.552,0,0.597-0.761,0.687-1.164C980.993-59.804,981.978-59.639,981.978-59.132z M979.35-61.804
			c0.148,0.029,0.298,0.029,0.448,0.029c0.283,0,0.536-0.029,0.805-0.075c0-0.269-0.148-1.164-0.521-1.164
			C979.528-63.014,979.395-62.223,979.35-61.804z"/>
		<path fill="#001E39" d="M990.055-57.654c0-0.18,0.03-0.358,0.03-0.538c0.089-1.12,0.104-2.254,0.104-3.39
			c0-1.896-0.104-3.792-0.104-5.673c0-0.612,0.298-0.657,0.731-0.657c0.433,0,0.882-0.089,0.882,0.418
			c0,0.359-0.076,0.732-0.076,1.091v2.344c0,0.776-0.089,1.568-0.089,2.358c0,0.657,0.059,1.329,0.059,2.001
			c0,0.328-0.044,0.642-0.044,0.971c0,0.327,0.044,0.672,0.044,1.015c0,0.852-0.656,0.807-1.223,0.807
			C990.115-57.087,990.055-57.371,990.055-57.654z"/>
		<path fill="#001E39" d="M1000.998-60.401c0,0.358,0.029,0.701,0.029,1.029c0,0.583-0.013,1.166-0.043,1.747
			c-0.016,0.358-0.165,0.374-0.673,0.374c-0.327,0-0.671-0.046-0.671-0.434c0-2.299,0.193-4.599,0.193-6.897
			c0-0.554-0.029-1.12-0.029-1.673c0-0.925,0.851-0.851,1.792-0.851c2.389,0,2.463,1.792,2.463,3.808
			c0,1.313-0.164,2.612-2.016,2.612c-0.344,0-0.673-0.06-1.029-0.06C1000.998-60.625,1000.998-60.505,1000.998-60.401z
			 M1002.507-65.478h0.015c-0.269-0.209-0.672-0.269-0.985-0.269c-0.165,0-0.344,0.03-0.509,0.045c0.017,0.553,0.03,1.09,0.03,1.628
			c0,0.731-0.014,1.447-0.014,2.149h0.135c0.282,0,0.865,0.015,1.089-0.104c0.403-0.208,0.508-1.284,0.508-1.672
			C1002.775-64.268,1002.686-65.313,1002.507-65.478z"/>
		<path fill="#001E39" d="M1005.925-66.135c0.374,0,0.643,0.27,0.643,0.583c0,0.239-0.193,0.731-0.746,0.731
			c-0.597,0-0.687-0.224-0.687-0.582c0-0.193,0.09-0.403,0.313-0.597C1005.611-66.089,1005.79-66.135,1005.925-66.135z
			 M1006.104-64.373c0.493,0,0.597,0.089,0.597,0.566c0,1.538-0.194,3.076-0.194,4.614c0,0.507,0.076,1.016,0.076,1.508
			c0,0.358-0.209,0.418-0.522,0.418c-0.18,0-0.375,0-0.553-0.06h0.015c-0.03,0-0.074-0.015-0.104-0.015
			c-0.046,0-0.09,0.015-0.135,0.015c-0.059-0.224-0.089-0.448-0.089-0.657c0-1.389,0.044-2.777,0.044-4.165
			c0-0.567-0.044-1.135-0.044-1.688c0-0.537,0.478-0.493,0.521-0.508L1006.104-64.373z"/>
		<path fill="#001E39" d="M1009.702-62.94c-0.643,0-0.866,2.404-0.866,2.927c0,0.463,0.134,1.493,0.776,1.493
			c0.403,0,0.434-0.522,0.792-0.522c0.194,0,0.388,0.179,0.521,0.313v-0.016c0.136,0.149,0.239,0.314,0.239,0.522
			c0,0.643-1,1-1.522,1c-1.837,0-1.955-1.851-1.955-3.149c0-1.194,0.074-3.658,1.821-3.957c0.328,0,1.776,0.255,1.776,0.956
			c0,0.344-0.404,0.567-0.612,0.776v-0.015c-0.061,0.06-0.135,0.104-0.225,0.104C1010.135-62.507,1009.972-62.94,1009.702-62.94z"/>
		<path fill="#001E39" d="M1013.718-64.104c0.374,0.03,0.732,0,1.091,0.09l-0.016,0.148c0.045,0.15,0.075,0.299,0.075,0.464
			c0,0.462-0.269,0.478-0.628,0.478h-0.553c-0.014,0.269-0.014,0.552-0.014,0.821c0,1.119-0.045,3.508,0.283,3.567
			c0.135-0.044,0.135-0.149,0.329-0.149c0.119,0,0.82,0.553,0.82,0.658c0,0.521-0.672,0.805-1.119,0.805
			c-0.239,0-0.538-0.134-0.762-0.237l-0.059-0.017c-0.688-0.387-0.718-1.403-0.718-2.104c0-1.045,0-2.179-0.135-3.284
			c-0.06-0.016-0.134-0.016-0.193-0.016c-0.09,0-0.18,0.016-0.269,0.016c-0.181,0-0.269-0.419-0.269-0.775
			c0-0.658,0.357-0.479,0.657-0.479c0-0.358-0.017-0.687-0.017-1.03c0-0.643,0.42-0.598,0.822-0.598c0.134,0,0.269,0.016,0.567,0.18
			C1013.658-65.089,1013.688-64.596,1013.718-64.104z"/>
		<path fill="#001E39" d="M1020.646-60.67c0,0.822,0.179,1.941,0.179,2.821c0,0.612-0.21,0.568-0.642,0.568
			c-0.329,0-0.553,0.03-0.687-0.284c-0.33,0.255-0.434,0.239-0.821,0.314h0.015c-0.12,0.028-0.239,0.044-0.373,0.044
			c-0.672,0-1.255-0.329-1.628-0.865v0.015c-0.194-0.254-0.21-0.509-0.328-0.776l0.015,0.015c-0.164-0.434-0.179-2.075-0.179-2.926
			v-1.209c0-0.464,0-0.912,0.059-1.359c0.21-0.09,0.449-0.134,0.673-0.134c0.417,0,0.791,0,0.791,0.567
			c0,1.372-0.179,2.762-0.179,4.12c0,0.553,0.209,0.955,0.821,0.955c0.163,0,0.343-0.06,0.507-0.134l-0.016,0.016
			c0.358-0.21,0.374-1.15,0.374-1.599c0-1.164-0.164-2.344-0.164-3.509c0-0.402,0.507-0.447,0.896-0.447
			c0.746,0,0.717,0.134,0.717,0.552C1020.676-62.85,1020.646-61.759,1020.646-60.67z"/>
		<path fill="#001E39" d="M1023.304-64.612v0.03c0,0.059,0,0.119,0.015,0.179c0.345-0.149,0.358-0.224,0.776-0.224
			c0.762,0,1.075,0.373,1.478,0.956c0.06,0.089,0.09,0.178,0.09,0.283c0,0.149-0.09,0.284-0.208,0.373h0.014
			c-0.134,0.149-0.388,0.358-0.597,0.358c-0.045,0-0.09,0-0.135-0.015h0.016c-0.254-0.076-0.329-0.314-0.464-0.358l0.015,0.015
			c-0.118-0.075-0.254-0.089-0.388-0.089c-0.627,0-0.583,1.104-0.583,1.642c0,0.881,0.045,1.762,0.045,2.673
			c0,0.492-0.06,0.97-0.06,1.463c-0.224,0.089-0.402,0.089-0.611,0.089c-0.523,0-0.703-0.014-0.703-0.478
			c0-0.672,0.062-1.344,0.062-2.016v-2.702c0-0.642-0.121-1.313-0.121-1.926c0-0.508,0.688-0.447,1.016-0.447
			c0.075,0,0.149,0.015,0.224,0.044L1023.304-64.612z"/>
		<path fill="#001E39" d="M1029.604-59.132c0,1.12-1.015,1.91-2.09,1.91c-1.837,0-1.986-2.522-1.986-3.866
			c0-1.388,0.508-3.284,2.21-3.284c1.776,0,1.718,2.149,1.718,3.494c0,0.433-1.448,0.491-2.523,0.491v0.284
			c0,0.418,0.029,1.463,0.627,1.463c0.553,0,0.598-0.761,0.688-1.164C1028.619-59.804,1029.604-59.639,1029.604-59.132z
			 M1026.976-61.804c0.149,0.029,0.299,0.029,0.448,0.029c0.284,0,0.537-0.029,0.807-0.075c0-0.269-0.149-1.164-0.522-1.164
			C1027.155-63.014,1027.021-62.223,1026.976-61.804z"/>
		<path fill="#001E39" d="M1033.889-59.222c0,0.389-0.119,0.911-0.358,1.239v-0.015c-0.343,0.521-0.97,0.791-1.582,0.791
			c-0.567,0-1.09-0.194-1.523-0.537v0.015c-0.163-0.104-0.508-0.507-0.508-0.701c0.105-0.239,0.718-0.688,0.985-0.688
			c0.21,0,0.658,0.582,1.12,0.582c0.225,0,0.359-0.402,0.359-0.582c0-0.597-0.746-1.225-1.18-1.567
			c-0.732-0.553-1.179-0.881-1.179-1.896c0-1.046,0.91-1.896,1.926-1.896c0.148,0,0.298,0.015,0.447,0.074v-0.015
			c0.448,0.104,1.269,0.522,1.269,0.94c-0.149,0.224-0.746,0.73-0.999,0.73c-0.105,0-0.345-0.343-0.717-0.343
			c-0.3,0-0.434,0.239-0.434,0.509c0,0.492,0.492,0.851,0.836,1.119h-0.016C1033.053-60.938,1033.889-60.178,1033.889-59.222z"/>
		<path fill="#001E39" d="M1041.95-57.654c0-0.18,0.03-0.358,0.03-0.538c0.09-1.12,0.105-2.254,0.105-3.39
			c0-1.896-0.105-3.792-0.105-5.673c0-0.612,0.3-0.657,0.731-0.657c0.434,0,0.881-0.089,0.881,0.418
			c0,0.359-0.074,0.732-0.074,1.091v2.344c0,0.776-0.091,1.568-0.091,2.358c0,0.657,0.061,1.329,0.061,2.001
			c0,0.328-0.045,0.642-0.045,0.971c0,0.327,0.045,0.672,0.045,1.015c0,0.852-0.657,0.807-1.226,0.807
			C1042.011-57.087,1041.95-57.371,1041.95-57.654z"/>
		<path fill="#001E39" d="M1053.073-59.954c-0.164-0.791-0.448-1.537-0.643-2.314c-0.313-1.179-0.507-2.403-0.686-3.598
			l-0.135-1.313c0.373,0,0.73-0.119,1.09-0.119l0.149,0.014c0.193,0.21,0.193,0.822,0.224,1.09c0.074,0.985,0.313,2.062,0.508,3.031
			c0.119,0.643,0.223,1.27,0.372,1.896c0.21-1.852,0.613-3.522,0.911-5.27c0.045-0.283,0.075-0.493,0.255-0.747
			c0.059,0.017,0.134,0.017,0.193,0.017c0.193,0,0.389-0.03,0.598-0.03c0.283,0,0.478,0,0.478,0.417c0,0.283-0.135,0.567-0.21,0.821
			v-0.015c-0.373,1.791-0.642,3.613-0.955,5.404c-0.463,3.165-0.494,3.3-0.553,3.434h-0.09c-0.283,0-0.581-0.014-0.865-0.06
			c-0.329-0.851-0.389-1.776-0.628-2.657H1053.073L1053.073-59.954z"/>
		<path fill="#001E39" d="M1058.284-66.135c0.372,0,0.642,0.27,0.642,0.583c0,0.239-0.195,0.731-0.748,0.731
			c-0.597,0-0.686-0.224-0.686-0.582c0-0.193,0.089-0.403,0.312-0.597C1057.971-66.089,1058.148-66.135,1058.284-66.135z
			 M1058.463-64.373c0.492,0,0.598,0.089,0.598,0.566c0,1.538-0.194,3.076-0.194,4.614c0,0.507,0.074,1.016,0.074,1.508
			c0,0.358-0.21,0.418-0.522,0.418c-0.179,0-0.373,0-0.553-0.06h0.016c-0.03,0-0.076-0.015-0.104-0.015
			c-0.045,0-0.089,0.015-0.135,0.015c-0.06-0.224-0.089-0.448-0.089-0.657c0-1.389,0.044-2.777,0.044-4.165
			c0-0.567-0.044-1.135-0.044-1.688c0-0.537,0.478-0.493,0.521-0.508L1058.463-64.373z"/>
		<path fill="#001E39" d="M1063.838-66.462c-0.016,0.193-0.016,0.388-0.016,0.581c0,0.39,0.016,0.776,0.016,1.165
			c0,1.523-0.105,3.031-0.105,4.554c0,0.671,0.03,1.329,0.03,2c0,0.284,0,0.553-0.014,0.837c-0.313,0.045-0.643,0.104-0.971,0.104
			c-0.135,0-0.284-0.028-0.403-0.118v-0.061c-0.104,0.061-0.225,0.075-0.358,0.075c-1.776,0-2.135-1.94-2.135-3.285
			c0-1.21-0.061-3.075,1.388-3.508h-0.014c0.119-0.045,0.253-0.061,0.388-0.061c0.239,0,0.493,0.075,0.731,0.135
			c0-0.567,0.031-1.119,0.031-1.687c0-0.284-0.017-0.554-0.031-0.837c0.224-0.224,0.537-0.298,0.852-0.298
			c0.164,0,0.328,0.014,0.462,0.045C1063.763-66.732,1063.838-66.582,1063.838-66.462z M1061.136-60.327
			c0,0.553,0.03,1.642,0.762,1.642c0.209,0,0.328-0.163,0.462-0.313c-0.044-0.224-0.075-0.493-0.075-0.775
			c0-0.747,0.121-1.628,0.121-2.225c0-0.299,0.104-0.732-0.643-0.732C1061.15-62.731,1061.136-60.878,1061.136-60.327z"/>
		<path fill="#001E39" d="M1068.899-59.132c0,1.12-1.016,1.91-2.091,1.91c-1.837,0-1.986-2.522-1.986-3.866
			c0-1.388,0.508-3.284,2.211-3.284c1.776,0,1.716,2.149,1.716,3.494c0,0.433-1.448,0.491-2.522,0.491v0.284
			c0,0.418,0.03,1.463,0.628,1.463c0.553,0,0.596-0.761,0.687-1.164C1067.914-59.804,1068.899-59.639,1068.899-59.132z
			 M1066.271-61.804c0.148,0.029,0.299,0.029,0.449,0.029c0.282,0,0.537-0.029,0.806-0.075c0-0.269-0.15-1.164-0.523-1.164
			C1066.451-63.014,1066.316-62.223,1066.271-61.804z"/>
		<path fill="#001E39" d="M1072.407-57.371c-0.089,0.045-0.239,0.134-0.358,0.134c-0.014,0-0.03,0-0.045-0.014
			c-0.09,0.014-0.193,0.028-0.282,0.028c-0.136,0-0.255,0-0.358-0.044l-0.359-0.06h0.015c-0.119-0.015-0.193-0.075-0.298-0.134
			c-1.149-0.553-1.3-1.643-1.3-3.166c0-1.225,0.345-3.358,1.926-3.358c0.194,0,0.403,0.014,0.597,0.088h-0.014
			c1.477,0.583,1.701,2.479,1.701,3.868c0,0.343-0.238,2.209-1.238,2.657H1072.407z M1070.661-60.46
			c0.135,0.716-0.135,2.03,0.94,2.03c0.657,0,0.493-1.553,0.493-2.105c0-0.716-0.046-2.195-0.596-2.195
			c-0.584,0-0.853,1.613-0.853,2.075C1070.646-60.595,1070.646-60.521,1070.661-60.46z"/>
		<path fill="#001E39" d="M1077.887-59.222c0,0.389-0.119,0.911-0.358,1.239v-0.015c-0.343,0.521-0.97,0.791-1.582,0.791
			c-0.566,0-1.09-0.194-1.522-0.537v0.015c-0.165-0.104-0.508-0.507-0.508-0.701c0.104-0.239,0.717-0.688,0.985-0.688
			c0.209,0,0.655,0.582,1.12,0.582c0.224,0,0.358-0.402,0.358-0.582c0-0.597-0.746-1.225-1.18-1.567
			c-0.732-0.553-1.18-0.881-1.18-1.896c0-1.046,0.911-1.896,1.927-1.896c0.149,0,0.298,0.015,0.447,0.074v-0.015
			c0.448,0.104,1.269,0.522,1.269,0.94c-0.149,0.224-0.745,0.73-1,0.73c-0.104,0-0.343-0.343-0.716-0.343
			c-0.3,0-0.434,0.239-0.434,0.509c0,0.492,0.494,0.851,0.836,1.119h-0.015C1077.052-60.938,1077.887-60.178,1077.887-59.222z"/>
	</g>
	<polygon fill="none" stroke="#001E39" stroke-miterlimit="10" points="932.314,-1.814 878.993,51.507 878.993,56.84 932.314,3.518 
			"/>
	<polygon fill="none" stroke="#001E39" stroke-miterlimit="10" points="1008.031,-72.199 1017.629,-81.797 1012.297,-81.797 
		1002.699,-72.199 	"/>
	<polygon fill="none" stroke="#001E39" stroke-miterlimit="10" points="1059.754,-123.92 1069.351,-133.518 1064.019,-133.518 
		1054.42,-123.92 	"/>
	<polygon fill="none" stroke="#001E39" stroke-miterlimit="10" points="981.637,-51.136 971.772,-41.272 977.105,-41.272 
		986.97,-51.136 	"/>
	<polygon fill="none" stroke="#001E39" stroke-miterlimit="10" points="981.37,-72.199 990.969,-81.797 985.637,-81.797 
		976.038,-72.199 	"/>
	<polygon fill="none" stroke="#001E39" stroke-miterlimit="10" points="1033.092,-123.92 1042.69,-133.518 1037.358,-133.518 
		1027.761,-123.92 	"/>
	<polygon fill="none" stroke="#001E39" stroke-miterlimit="10" points="932.314,-28.474 878.993,24.847 878.993,30.179 
		932.314,-23.143 	"/>
	<polygon fill="none" stroke="#001E39" stroke-miterlimit="10" points="954.978,-51.136 945.111,-41.272 950.444,-41.272 
		960.308,-51.136 	"/>
	<polygon fill="none" stroke="#001E39" stroke-miterlimit="10" points="992.034,-72.199 1001.633,-81.797 996.301,-81.797 
		986.702,-72.199 	"/>
	<polygon fill="none" stroke="#001E39" stroke-miterlimit="10" points="965.641,-51.136 955.776,-41.272 961.108,-41.272 
		970.974,-51.136 	"/>
	<polygon fill="none" stroke="#001E39" stroke-miterlimit="10" points="932.314,-17.81 878.993,35.511 878.993,40.843 
		932.314,-12.478 	"/>
	<polygon fill="none" stroke="#001E39" stroke-miterlimit="10" points="1043.758,-123.92 1053.354,-133.518 1048.022,-133.518 
		1038.424,-123.92 	"/>
	<polygon fill="none" stroke="#001E39" stroke-miterlimit="10" points="1002.699,-72.199 1012.297,-81.797 1006.965,-81.797 
		997.367,-72.199 	"/>
	<polygon fill="none" stroke="#001E39" stroke-miterlimit="10" points="976.305,-51.136 966.44,-41.272 971.772,-41.272 
		981.637,-51.136 	"/>
	<polygon fill="none" stroke="#001E39" stroke-miterlimit="10" points="932.314,-7.146 878.993,46.175 878.993,51.507 
		932.314,-1.814 	"/>
	<polygon fill="none" stroke="#001E39" stroke-miterlimit="10" points="1054.42,-123.92 1064.019,-133.518 1058.687,-133.518 
		1049.089,-123.92 	"/>
	<polygon fill="none" stroke="#001E39" stroke-miterlimit="10" points="1049.089,-123.92 1058.687,-133.518 1053.354,-133.518 
		1043.758,-123.92 	"/>
	<polygon fill="none" stroke="#001E39" stroke-miterlimit="10" points="997.367,-72.199 1006.965,-81.797 1001.633,-81.797 
		992.034,-72.199 	"/>
	<polygon fill="none" stroke="#001E39" stroke-miterlimit="10" points="932.314,-12.478 878.993,40.843 878.993,46.175 
		932.314,-7.146 	"/>
	<polygon fill="none" stroke="#001E39" stroke-miterlimit="10" points="970.974,-51.136 961.108,-41.272 966.44,-41.272 
		976.305,-51.136 	"/>
	<polygon fill="none" stroke="#001E39" stroke-miterlimit="10" points="1038.424,-123.92 1048.022,-133.518 1042.69,-133.518 
		1033.092,-123.92 	"/>
	<polygon fill="none" stroke="#001E39" stroke-miterlimit="10" points="986.702,-72.199 996.301,-81.797 990.969,-81.797 
		981.37,-72.199 	"/>
	<polygon fill="none" stroke="#001E39" stroke-miterlimit="10" points="932.314,-23.143 878.993,30.179 878.993,35.511 
		932.314,-17.81 	"/>
	<polygon fill="none" stroke="#001E39" stroke-miterlimit="10" points="960.308,-51.136 950.444,-41.272 955.776,-41.272 
		965.641,-51.136 	"/>
	<polygon fill="none" stroke="#001E39" stroke-miterlimit="10" points="964.307,-81.797 954.71,-72.199 960.042,-72.199 
		969.641,-81.797 	"/>
	<polygon fill="none" stroke="#001E39" stroke-miterlimit="10" points="933.648,-51.136 878.993,3.518 878.993,8.851 
		938.98,-51.136 	"/>
	<polygon fill="none" stroke="#001E39" stroke-miterlimit="10" points="1011.764,-123.92 1021.361,-133.518 1016.029,-133.518 
		1006.432,-123.92 	"/>
	<polygon fill="none" stroke="#001E39" stroke-miterlimit="10" points="958.976,-81.797 949.377,-72.199 954.71,-72.199 
		964.307,-81.797 	"/>
	<polygon fill="none" stroke="#001E39" stroke-miterlimit="10" points="1006.432,-123.92 1016.029,-133.518 1010.697,-133.518 
		1001.1,-123.92 	"/>
	<polygon fill="none" stroke="#001E39" stroke-miterlimit="10" points="932.314,-51.136 932.314,-55.135 878.993,-1.814 
		878.993,3.518 933.648,-51.136 	"/>
	<polygon fill="none" stroke="#001E39" stroke-miterlimit="10" points="932.314,-41.272 934.448,-41.272 944.312,-51.136 
		938.98,-51.136 878.993,8.851 878.993,14.183 932.314,-39.139 	"/>
	<polygon fill="none" stroke="#001E39" stroke-miterlimit="10" points="1017.096,-123.92 1026.693,-133.518 1021.361,-133.518 
		1011.764,-123.92 	"/>
	<polygon fill="none" stroke="#001E39" stroke-miterlimit="10" points="969.641,-81.797 960.042,-72.199 965.374,-72.199 
		974.972,-81.797 	"/>
	<polygon fill="none" stroke="#001E39" stroke-miterlimit="10" points="974.972,-81.797 965.374,-72.199 970.706,-72.199 
		980.304,-81.797 	"/>
	<polygon fill="none" stroke="#001E39" stroke-miterlimit="10" points="932.314,-39.139 878.993,14.183 878.993,19.514 
		932.314,-33.806 	"/>
	<polygon fill="none" stroke="#001E39" stroke-miterlimit="10" points="949.645,-51.136 944.312,-51.136 934.448,-41.272 
		939.779,-41.272 	"/>
	<polygon fill="none" stroke="#001E39" stroke-miterlimit="10" points="1022.428,-123.92 1032.026,-133.518 1026.693,-133.518 
		1017.096,-123.92 	"/>
	<polygon fill="none" stroke="#001E39" stroke-miterlimit="10" points="949.645,-51.136 939.779,-41.272 945.111,-41.272 
		954.978,-51.136 	"/>
	<polygon fill="none" stroke="#001E39" stroke-miterlimit="10" points="985.637,-81.797 980.304,-81.797 970.706,-72.199 
		976.038,-72.199 	"/>
	<polygon fill="none" stroke="#001E39" stroke-miterlimit="10" points="1027.761,-123.92 1037.358,-133.518 1032.026,-133.518 
		1022.428,-123.92 	"/>
	<polygon fill="none" stroke="#001E39" stroke-miterlimit="10" points="932.314,-33.806 878.993,19.514 878.993,24.847 
		932.314,-28.474 	"/>
	<polygon fill="none" stroke="#001E39" stroke-miterlimit="10" points="1081.082,-123.92 1090.68,-133.518 1085.347,-133.518 
		1075.75,-123.92 	"/>
	<polygon fill="none" stroke="#001E39" stroke-miterlimit="10" points="932.314,19.514 878.993,72.836 878.993,78.168 
		932.314,24.847 	"/>
	<polygon fill="none" stroke="#001E39" stroke-miterlimit="10" points="1029.359,-72.199 1038.957,-81.797 1033.627,-81.797 
		1024.027,-72.199 	"/>
	<polygon fill="none" stroke="#001E39" stroke-miterlimit="10" points="1002.966,-51.136 993.102,-41.272 998.434,-41.272 
		1008.298,-51.136 	"/>
	<polygon fill="none" stroke="#001E39" stroke-miterlimit="10" points="1045.356,-72.199 1054.954,-81.797 1049.622,-81.797 
		1040.023,-72.199 	"/>
	<polygon fill="none" stroke="#001E39" stroke-miterlimit="10" points="1018.962,-51.136 1009.098,-41.272 1014.431,-41.272 
		1024.294,-51.136 	"/>
	<polygon fill="none" stroke="#001E39" stroke-miterlimit="10" points="932.314,35.511 884.858,82.967 890.19,82.967 
		932.314,40.843 	"/>
	<polygon fill="none" stroke="#001E39" stroke-miterlimit="10" points="1097.078,-123.92 1106.676,-133.518 1101.344,-133.518 
		1091.746,-123.92 	"/>
	<polygon fill="none" stroke="#001E39" stroke-miterlimit="10" points="1102.41,-123.92 1112.008,-133.518 1106.676,-133.518 
		1097.078,-123.92 	"/>
	<polygon fill="none" stroke="#001E39" stroke-miterlimit="10" points="1024.294,-51.136 1014.431,-41.272 1019.762,-41.272 
		1029.627,-51.136 	"/>
	<polygon fill="none" stroke="#001E39" stroke-miterlimit="10" points="1050.688,-72.199 1060.285,-81.797 1054.954,-81.797 
		1045.356,-72.199 	"/>
	<polygon fill="none" stroke="#001E39" stroke-miterlimit="10" points="932.314,40.843 890.19,82.967 895.523,82.967 
		932.314,46.175 	"/>
	<polygon fill="none" stroke="#001E39" stroke-miterlimit="10" points="932.314,46.175 895.523,82.967 900.854,82.967 
		932.314,51.507 	"/>
	<polygon fill="none" stroke="#001E39" stroke-miterlimit="10" points="1056.02,-72.199 1065.618,-81.797 1060.285,-81.797 
		1050.688,-72.199 	"/>
	<polygon fill="none" stroke="#001E39" stroke-miterlimit="10" points="1029.627,-51.136 1019.762,-41.272 1025.094,-41.272 
		1034.959,-51.136 	"/>
	<polygon fill="none" stroke="#001E39" stroke-miterlimit="10" points="1103.477,-123.92 1103.477,-119.654 1117.341,-133.518 
		1112.008,-133.518 1102.41,-123.92 	"/>
	<polygon fill="none" stroke="#001E39" stroke-miterlimit="10" points="932.314,30.179 879.526,82.967 884.858,82.967 
		932.314,35.511 	"/>
	<polygon fill="none" stroke="#001E39" stroke-miterlimit="10" points="1013.63,-51.136 1003.765,-41.272 1009.098,-41.272 
		1018.962,-51.136 	"/>
	<polygon fill="none" stroke="#001E39" stroke-miterlimit="10" points="1040.023,-72.199 1049.622,-81.797 1044.289,-81.797 
		1034.692,-72.199 	"/>
	<polygon fill="none" stroke="#001E39" stroke-miterlimit="10" points="1091.746,-123.92 1101.344,-133.518 1096.012,-133.518 
		1086.414,-123.92 	"/>
	<polygon fill="none" stroke="#001E39" stroke-miterlimit="10" points="1103.477,-114.322 1122.672,-133.518 1117.341,-133.518 
		1103.477,-119.654 	"/>
	<polygon fill="none" stroke="#001E39" stroke-miterlimit="10" points="932.314,51.507 900.854,82.967 906.187,82.967 
		932.314,56.84 	"/>
	<polygon fill="none" stroke="#001E39" stroke-miterlimit="10" points="1034.959,-51.136 1025.094,-41.272 1030.427,-41.272 
		1040.291,-51.136 	"/>
	<polygon fill="none" stroke="#001E39" stroke-miterlimit="10" points="1061.353,-72.199 1070.951,-81.797 1065.618,-81.797 
		1056.02,-72.199 	"/>
	<polygon fill="none" stroke="#001E39" stroke-miterlimit="10" points="1024.027,-72.199 1033.627,-81.797 1028.293,-81.797 
		1018.695,-72.199 	"/>
	<polygon fill="none" stroke="#001E39" stroke-miterlimit="10" points="932.314,14.183 878.993,67.503 878.993,72.836 
		932.314,19.514 	"/>
	<polygon fill="none" stroke="#001E39" stroke-miterlimit="10" points="1075.75,-123.92 1085.347,-133.518 1080.016,-133.518 
		1070.417,-123.92 	"/>
	<polygon fill="none" stroke="#001E39" stroke-miterlimit="10" points="997.634,-51.136 987.769,-41.272 993.102,-41.272 
		1002.966,-51.136 	"/>
	<polygon fill="none" stroke="#001E39" stroke-miterlimit="10" points="1034.692,-72.199 1044.289,-81.797 1038.957,-81.797 
		1029.359,-72.199 	"/>
	<polygon fill="none" stroke="#001E39" stroke-miterlimit="10" points="1008.298,-51.136 998.434,-41.272 1003.765,-41.272 
		1013.63,-51.136 	"/>
	<polygon fill="none" stroke="#001E39" stroke-miterlimit="10" points="932.314,24.847 878.993,78.168 878.993,82.967 
		879.526,82.967 932.314,30.179 	"/>
	<polygon fill="none" stroke="#001E39" stroke-miterlimit="10" points="1086.414,-123.92 1096.012,-133.518 1090.68,-133.518 
		1081.082,-123.92 	"/>
	<polygon fill="none" stroke="#001E39" stroke-miterlimit="10" points="932.314,8.851 878.993,62.172 878.993,67.503 
		932.314,14.183 	"/>
	<polygon fill="none" stroke="#001E39" stroke-miterlimit="10" points="1018.695,-72.199 1028.293,-81.797 1022.961,-81.797 
		1013.363,-72.199 	"/>
	<polygon fill="none" stroke="#001E39" stroke-miterlimit="10" points="1070.417,-123.92 1080.016,-133.518 1074.684,-133.518 
		1065.085,-123.92 	"/>
	<polygon fill="none" stroke="#001E39" stroke-miterlimit="10" points="992.302,-51.136 982.437,-41.272 987.769,-41.272 
		997.634,-51.136 	"/>
	<polygon fill="none" stroke="#001E39" stroke-miterlimit="10" points="1013.363,-72.199 1022.961,-81.797 1017.629,-81.797 
		1008.031,-72.199 	"/>
	<polygon fill="none" stroke="#001E39" stroke-miterlimit="10" points="932.314,3.518 878.993,56.84 878.993,62.172 932.314,8.851 	
		"/>
	<polygon fill="none" stroke="#001E39" stroke-miterlimit="10" points="1065.085,-123.92 1074.684,-133.518 1069.351,-133.518 
		1059.754,-123.92 	"/>
	<polygon fill="none" stroke="#001E39" stroke-miterlimit="10" points="986.97,-51.136 977.105,-41.272 982.437,-41.272 
		992.302,-51.136 	"/>
	<polygon fill="none" stroke="#001E39" stroke-miterlimit="10" points="932.314,-60.468 878.993,-7.146 878.993,-1.814 
		932.314,-55.135 	"/>
	<polygon fill="none" stroke="#001E39" stroke-miterlimit="10" points="1001.1,-123.92 1010.697,-133.518 1005.365,-133.518 
		995.768,-123.92 	"/>
	<polygon fill="none" stroke="#001E39" stroke-miterlimit="10" points="953.644,-81.797 944.045,-72.199 949.377,-72.199 
		958.976,-81.797 	"/>
	<polygon fill="none" stroke="#001E39" stroke-miterlimit="10" points="932.314,-97.793 878.993,-44.472 878.993,-39.139 
		932.314,-92.46 	"/>
	<polygon fill="none" stroke="#001E39" stroke-miterlimit="10" points="963.775,-123.92 973.372,-133.518 968.041,-133.518 
		958.441,-123.92 	"/>
	<polygon fill="none" stroke="#001E39" stroke-miterlimit="10" points="925.383,-133.518 878.993,-87.128 878.993,-81.797 
		930.716,-133.518 	"/>
	<polygon fill="none" stroke="#001E39" stroke-miterlimit="10" points="920.051,-133.518 878.993,-92.46 878.993,-87.128 
		925.383,-133.518 	"/>
	<polygon fill="none" stroke="#001E39" stroke-miterlimit="10" points="936.047,-133.518 878.993,-76.464 878.993,-71.131 
		941.379,-133.518 	"/>
	<polygon fill="none" stroke="#001E39" stroke-miterlimit="10" points="932.314,-123.92 937.113,-123.92 946.712,-133.518 
		941.379,-133.518 878.993,-71.131 878.993,-65.799 932.314,-119.121 	"/>
	<polygon fill="none" stroke="#001E39" stroke-miterlimit="10" points="909.387,-133.518 878.993,-103.125 878.993,-97.793 
		914.719,-133.518 	"/>
	<polygon fill="none" stroke="#001E39" stroke-miterlimit="10" points="930.716,-133.518 878.993,-81.797 878.993,-76.464 
		936.047,-133.518 	"/>
	<polygon fill="none" stroke="#001E39" stroke-miterlimit="10" points="878.993,-133.518 878.993,-124.453 888.059,-133.518 	"/>
	<polygon fill="none" stroke="#001E39" stroke-miterlimit="10" points="995.768,-123.92 1005.365,-133.518 1000.033,-133.518 
		990.434,-123.92 	"/>
	<polygon fill="none" stroke="#001E39" stroke-miterlimit="10" points="932.314,-65.799 878.993,-12.478 878.993,-7.146 
		932.314,-60.468 	"/>
	<polygon fill="none" stroke="#001E39" stroke-miterlimit="10" points="948.311,-81.797 938.714,-72.199 944.045,-72.199 
		953.644,-81.797 	"/>
	<polygon fill="none" stroke="#001E39" stroke-miterlimit="10" points="893.39,-133.518 878.993,-119.121 878.993,-113.79 
		898.722,-133.518 	"/>
	<polygon fill="none" stroke="#001E39" stroke-miterlimit="10" points="904.055,-133.518 878.993,-108.457 878.993,-103.125 
		909.387,-133.518 	"/>
	<polygon fill="none" stroke="#001E39" stroke-miterlimit="10" points="898.722,-133.518 878.993,-113.79 878.993,-108.457 
		904.055,-133.518 	"/>
	<polygon fill="none" stroke="#001E39" stroke-miterlimit="10" points="888.059,-133.518 878.993,-124.453 878.993,-119.121 
		893.39,-133.518 	"/>
	<polygon fill="none" stroke="#001E39" stroke-miterlimit="10" points="974.438,-123.92 984.037,-133.518 978.704,-133.518 
		969.106,-123.92 	"/>
	<polygon fill="none" stroke="#001E39" stroke-miterlimit="10" points="932.314,-87.128 878.993,-33.806 878.993,-28.474 
		932.314,-81.797 	"/>
	<polygon fill="none" stroke="#001E39" stroke-miterlimit="10" points="932.314,-92.46 878.993,-39.139 878.993,-33.806 
		932.314,-87.128 	"/>
	<polygon fill="none" stroke="#001E39" stroke-miterlimit="10" points="969.106,-123.92 978.704,-133.518 973.372,-133.518 
		963.775,-123.92 	"/>
	<polygon fill="none" stroke="#001E39" stroke-miterlimit="10" points="979.771,-123.92 989.369,-133.518 984.037,-133.518 
		974.438,-123.92 	"/>
	<polygon fill="none" stroke="#001E39" stroke-miterlimit="10" points="932.314,-81.797 878.993,-28.474 878.993,-23.143 
		937.647,-81.797 	"/>
	<polygon fill="none" stroke="#001E39" stroke-miterlimit="10" points="985.104,-123.92 994.701,-133.518 989.369,-133.518 
		979.771,-123.92 	"/>
	<polygon fill="none" stroke="#001E39" stroke-miterlimit="10" points="932.314,-72.199 933.381,-72.199 942.979,-81.797 
		937.647,-81.797 878.993,-23.143 878.993,-17.81 932.314,-71.131 	"/>
	<polygon fill="none" stroke="#001E39" stroke-miterlimit="10" points="990.434,-123.92 1000.033,-133.518 994.701,-133.518 
		985.104,-123.92 	"/>
	<polygon fill="none" stroke="#001E39" stroke-miterlimit="10" points="948.311,-81.797 942.979,-81.797 933.381,-72.199 
		938.714,-72.199 	"/>
	<polygon fill="none" stroke="#001E39" stroke-miterlimit="10" points="932.314,-71.131 878.993,-17.81 878.993,-12.478 
		932.314,-65.799 	"/>
	<polygon fill="none" stroke="#001E39" stroke-miterlimit="10" points="1040.291,-51.136 1030.427,-41.272 1035.758,-41.272 
		1045.623,-51.136 	"/>
	<polygon fill="none" stroke="#001E39" stroke-miterlimit="10" points="1066.686,-72.199 1076.282,-81.797 1070.951,-81.797 
		1061.353,-72.199 	"/>
	<polygon fill="none" stroke="#001E39" stroke-miterlimit="10" points="932.314,56.84 906.187,82.967 911.52,82.967 932.314,62.172 
			"/>
	<polygon fill="none" stroke="#001E39" stroke-miterlimit="10" points="1103.477,-108.991 1128.004,-133.518 1122.672,-133.518 
		1103.477,-114.322 	"/>
	<polygon fill="none" stroke="#001E39" stroke-miterlimit="10" points="932.314,-108.457 878.993,-55.135 878.993,-49.802 
		932.314,-103.125 	"/>
	<polygon fill="none" stroke="#001E39" stroke-miterlimit="10" points="953.109,-123.92 962.708,-133.518 957.375,-133.518 
		947.778,-123.92 	"/>
	<polygon fill="none" stroke="#001E39" stroke-miterlimit="10" points="932.314,-113.79 878.993,-60.468 878.993,-55.135 
		932.314,-108.457 	"/>
	<polygon fill="none" stroke="#001E39" stroke-miterlimit="10" points="947.778,-123.92 957.375,-133.518 952.045,-133.518 
		942.445,-123.92 	"/>
	<polygon fill="none" stroke="#001E39" stroke-miterlimit="10" points="932.314,-103.125 878.993,-49.802 878.993,-44.472 
		932.314,-97.793 	"/>
	<polygon fill="none" stroke="#001E39" stroke-miterlimit="10" points="958.441,-123.92 968.041,-133.518 962.708,-133.518 
		953.109,-123.92 	"/>
	<polygon fill="none" stroke="#001E39" stroke-miterlimit="10" points="942.445,-123.92 952.045,-133.518 946.712,-133.518 
		937.113,-123.92 	"/>
	<polygon fill="none" stroke="#001E39" stroke-miterlimit="10" points="932.314,-119.121 878.993,-65.799 878.993,-60.468 
		932.314,-113.79 	"/>
	<polygon fill="none" stroke="#001E39" stroke-miterlimit="10" points="914.719,-133.518 878.993,-97.793 878.993,-92.46 
		920.051,-133.518 	"/>
	<polygon fill="none" stroke="#001E39" stroke-miterlimit="10" points="1103.477,50.975 1155.198,-0.748 1155.198,-6.08 
		1103.477,45.642 	"/>
	<polygon fill="none" stroke="#001E39" stroke-miterlimit="10" points="1103.477,56.306 1155.198,4.585 1155.198,-0.748 
		1103.477,50.975 	"/>
	<polygon fill="none" stroke="#001E39" stroke-miterlimit="10" points="1103.477,18.981 1155.198,-32.741 1155.198,-38.072 
		1103.477,13.649 	"/>
	<polygon fill="none" stroke="#001E39" stroke-miterlimit="10" points="1103.477,66.971 1155.198,15.249 1155.198,9.916 
		1103.477,61.638 	"/>
	<polygon fill="none" stroke="#001E39" stroke-miterlimit="10" points="1103.477,72.303 1155.198,20.582 1155.198,15.249 
		1103.477,66.971 	"/>
	<polygon fill="none" stroke="#001E39" stroke-miterlimit="10" points="1103.477,34.978 1155.198,-16.744 1155.198,-22.076 
		1103.477,29.646 	"/>
	<polygon fill="none" stroke="#001E39" stroke-miterlimit="10" points="1103.477,24.314 1155.198,-27.408 1155.198,-32.741 
		1103.477,18.981 	"/>
	<polygon fill="none" stroke="#001E39" stroke-miterlimit="10" points="1103.477,45.642 1155.198,-6.08 1155.198,-11.412 
		1103.477,40.31 	"/>
	<polygon fill="none" stroke="#001E39" stroke-miterlimit="10" points="1103.477,29.646 1155.198,-22.076 1155.198,-27.408 
		1103.477,24.314 	"/>
	<polygon fill="none" stroke="#001E39" stroke-miterlimit="10" points="1103.477,40.31 1155.198,-11.412 1155.198,-16.744 
		1103.477,34.978 	"/>
	<polygon fill="none" stroke="#001E39" stroke-miterlimit="10" points="1103.477,77.634 1155.198,25.914 1155.198,20.582 
		1103.477,72.303 	"/>
	<polygon fill="none" stroke="#001E39" stroke-miterlimit="10" points="1103.477,61.638 1155.198,9.916 1155.198,4.585 
		1103.477,56.306 	"/>
	<polygon fill="none" stroke="#001E39" stroke-miterlimit="10" points="1135.47,82.967 1155.198,63.239 1155.198,57.906 
		1130.137,82.967 	"/>
	<polygon fill="none" stroke="#001E39" stroke-miterlimit="10" points="1140.802,82.967 1155.198,68.571 1155.198,63.239 
		1135.47,82.967 	"/>
	<polygon fill="none" stroke="#001E39" stroke-miterlimit="10" points="1146.134,82.967 1155.198,73.902 1155.198,68.571 
		1140.802,82.967 	"/>
	<polygon fill="none" stroke="#001E39" stroke-miterlimit="10" points="1155.198,82.967 1155.198,73.902 1146.134,82.967 	"/>
	<polygon fill="none" stroke="#001E39" stroke-miterlimit="10" points="1130.137,82.967 1155.198,57.906 1155.198,52.574 
		1124.806,82.967 	"/>
	<polygon fill="none" stroke="#001E39" stroke-miterlimit="10" points="1108.809,82.967 1155.198,36.578 1155.198,31.245 
		1103.477,82.967 	"/>
	<polygon fill="none" stroke="#001E39" stroke-miterlimit="10" points="1114.141,82.967 1155.198,41.91 1155.198,36.578 
		1108.809,82.967 	"/>
	<polygon fill="none" stroke="#001E39" stroke-miterlimit="10" points="1103.477,82.967 1155.198,31.245 1155.198,25.914 
		1103.477,77.634 	"/>
	<polygon fill="none" stroke="#001E39" stroke-miterlimit="10" points="1124.806,82.967 1155.198,52.574 1155.198,47.242 
		1119.473,82.967 	"/>
	<polygon fill="none" stroke="#001E39" stroke-miterlimit="10" points="1119.473,82.967 1155.198,47.242 1155.198,41.91 
		1114.141,82.967 	"/>
	<polygon fill="none" stroke="#001E39" stroke-miterlimit="10" points="1103.477,-34.34 1155.198,-86.062 1155.198,-91.394 
		1103.477,-39.671 	"/>
	<polygon fill="none" stroke="#001E39" stroke-miterlimit="10" points="1077.615,-51.136 1067.751,-41.272 1073.083,-41.272 
		1082.948,-51.136 	"/>
	<polygon fill="none" stroke="#001E39" stroke-miterlimit="10" points="1103.477,-72.199 1103.477,-71.666 1155.198,-123.387 
		1155.198,-128.719 1098.678,-72.199 	"/>
	<polygon fill="none" stroke="#001E39" stroke-miterlimit="10" points="1088.279,-51.136 1078.416,-41.272 1083.748,-41.272 
		1093.612,-51.136 	"/>
	<polygon fill="none" stroke="#001E39" stroke-miterlimit="10" points="1103.477,-61 1155.198,-112.723 1155.198,-118.055 
		1103.477,-66.333 	"/>
	<polygon fill="none" stroke="#001E39" stroke-miterlimit="10" points="1082.948,-51.136 1073.083,-41.272 1078.416,-41.272 
		1088.279,-51.136 	"/>
	<polygon fill="none" stroke="#001E39" stroke-miterlimit="10" points="1103.477,-66.333 1155.198,-118.055 1155.198,-123.387 
		1103.477,-71.666 	"/>
	<polygon fill="none" stroke="#001E39" stroke-miterlimit="10" points="1103.477,-51.136 1098.944,-51.136 1089.08,-41.272 
		1094.412,-41.272 1155.198,-102.058 1155.198,-107.39 1103.477,-55.667 	"/>
	<polygon fill="none" stroke="#001E39" stroke-miterlimit="10" points="1103.477,-55.667 1155.198,-107.39 1155.198,-112.723 
		1103.477,-61 	"/>
	<polygon fill="none" stroke="#001E39" stroke-miterlimit="10" points="1083.748,-41.272 1089.08,-41.272 1098.944,-51.136 
		1093.612,-51.136 	"/>
	<polygon fill="none" stroke="#001E39" stroke-miterlimit="10" points="1103.477,13.649 1155.198,-38.072 1155.198,-43.405 
		1103.477,8.318 	"/>
	<polygon fill="none" stroke="#001E39" stroke-miterlimit="10" points="1099.744,-41.272 1155.198,-96.726 1155.198,-102.058 
		1094.412,-41.272 	"/>
	<polygon fill="none" stroke="#001E39" stroke-miterlimit="10" points="1103.477,-92.994 1144.001,-133.518 1138.669,-133.518 
		1103.477,-98.326 	"/>
	<polygon fill="none" stroke="#001E39" stroke-miterlimit="10" points="1082.682,-72.199 1092.279,-81.797 1086.947,-81.797 
		1077.349,-72.199 	"/>
	<polygon fill="none" stroke="#001E39" stroke-miterlimit="10" points="932.314,72.836 922.183,82.967 927.516,82.967 
		932.314,78.168 	"/>
	<polygon fill="none" stroke="#001E39" stroke-miterlimit="10" points="1056.287,-51.136 1046.423,-41.272 1051.755,-41.272 
		1061.62,-51.136 	"/>
	<polygon fill="none" stroke="#001E39" stroke-miterlimit="10" points="1103.477,-98.326 1138.669,-133.518 1133.337,-133.518 
		1103.477,-103.658 	"/>
	<polygon fill="none" stroke="#001E39" stroke-miterlimit="10" points="1041.09,-41.272 1046.423,-41.272 1056.287,-51.136 
		1050.955,-51.136 	"/>
	<polygon fill="none" stroke="#001E39" stroke-miterlimit="10" points="1077.349,-72.199 1086.947,-81.797 1081.614,-81.797 
		1072.017,-72.199 	"/>
	<polygon fill="none" stroke="#001E39" stroke-miterlimit="10" points="932.314,67.503 916.851,82.967 922.183,82.967 
		932.314,72.836 	"/>
	<polygon fill="none" stroke="#001E39" stroke-miterlimit="10" points="1082.682,-72.199 1088.014,-72.199 1097.611,-81.797 
		1092.279,-81.797 	"/>
	<polygon fill="none" stroke="#001E39" stroke-miterlimit="10" points="1061.62,-51.136 1051.755,-41.272 1057.087,-41.272 
		1066.952,-51.136 	"/>
	<polygon fill="none" stroke="#001E39" stroke-miterlimit="10" points="927.516,82.967 932.314,82.967 932.314,78.168 	"/>
	<polygon fill="none" stroke="#001E39" stroke-miterlimit="10" points="1103.477,-87.662 1149.333,-133.518 1144.001,-133.518 
		1103.477,-92.994 	"/>
	<polygon fill="none" stroke="#001E39" stroke-miterlimit="10" points="1066.952,-51.136 1057.087,-41.272 1062.419,-41.272 
		1072.283,-51.136 	"/>
	<polygon fill="none" stroke="#001E39" stroke-miterlimit="10" points="1103.477,-82.329 1154.666,-133.518 1149.333,-133.518 
		1103.477,-87.662 	"/>
	<polygon fill="none" stroke="#001E39" stroke-miterlimit="10" points="1088.014,-72.199 1093.345,-72.199 1102.943,-81.797 
		1097.611,-81.797 	"/>
	<polygon fill="none" stroke="#001E39" stroke-miterlimit="10" points="1154.666,-133.518 1103.477,-82.329 1103.477,-81.797 
		1102.943,-81.797 1093.345,-72.199 1098.678,-72.199 1155.198,-128.719 1155.198,-133.518 	"/>
	<polygon fill="none" stroke="#001E39" stroke-miterlimit="10" points="1072.283,-51.136 1062.419,-41.272 1067.751,-41.272 
		1077.615,-51.136 	"/>
	<polygon fill="none" stroke="#001E39" stroke-miterlimit="10" points="1103.477,-2.347 1155.198,-54.069 1155.198,-59.401 
		1103.477,-7.679 	"/>
	<polygon fill="none" stroke="#001E39" stroke-miterlimit="10" points="1103.477,-7.679 1155.198,-59.401 1155.198,-64.733 
		1103.477,-13.011 	"/>
	<polygon fill="none" stroke="#001E39" stroke-miterlimit="10" points="1103.477,2.985 1155.198,-48.737 1155.198,-54.069 
		1103.477,-2.347 	"/>
	<polygon fill="none" stroke="#001E39" stroke-miterlimit="10" points="1103.477,8.318 1155.198,-43.405 1155.198,-48.737 
		1103.477,2.985 	"/>
	<polygon fill="none" stroke="#001E39" stroke-miterlimit="10" points="1103.477,-13.011 1155.198,-64.733 1155.198,-70.065 
		1103.477,-18.343 	"/>
	<polygon fill="none" stroke="#001E39" stroke-miterlimit="10" points="1103.477,-41.272 1103.477,-39.671 1155.198,-91.394 
		1155.198,-96.726 1099.744,-41.272 	"/>
	<polygon fill="none" stroke="#001E39" stroke-miterlimit="10" points="1045.623,-51.136 1035.758,-41.272 1041.09,-41.272 
		1050.955,-51.136 	"/>
	<polygon fill="none" stroke="#001E39" stroke-miterlimit="10" points="1103.477,-103.658 1133.337,-133.518 1128.004,-133.518 
		1103.477,-108.991 	"/>
	<polygon fill="none" stroke="#001E39" stroke-miterlimit="10" points="1072.017,-72.199 1081.614,-81.797 1076.282,-81.797 
		1066.686,-72.199 	"/>
	<polygon fill="none" stroke="#001E39" stroke-miterlimit="10" points="932.314,62.172 911.52,82.967 916.851,82.967 
		932.314,67.503 	"/>
	<polygon fill="none" stroke="#001E39" stroke-miterlimit="10" points="1103.477,-29.008 1155.198,-80.73 1155.198,-86.062 
		1103.477,-34.34 	"/>
	<polygon fill="none" stroke="#001E39" stroke-miterlimit="10" points="1103.477,-18.343 1155.198,-70.065 1155.198,-75.398 
		1103.477,-23.675 	"/>
	<polygon fill="none" stroke="#001E39" stroke-miterlimit="10" points="1103.477,-23.675 1155.198,-75.398 1155.198,-80.73 
		1103.477,-29.008 	"/>
	<polygon fill="#FFFFFF" stroke="#000000" stroke-miterlimit="10" points="1103.477,-81.797 1103.477,-82.329 1102.943,-81.797 	"/>
	<polygon fill="#FFFFFF" stroke="#000000" stroke-miterlimit="10" points="932.314,-72.199 932.314,-71.131 933.381,-72.199 	"/>
	<g>
		<path fill="#001E39" d="M949.024-18.786c-0.16-0.256-0.943-4.527-1.022-5.054c-0.289,1.552-0.642,3.102-0.864,4.653
			c-0.048,0.271-0.128,0.367-0.385,0.432l0.017-0.016c-0.144,0.049-0.288,0.049-0.432,0.049c-0.112,0-0.288,0-0.416-0.049
			c-0.304-0.096-1.504-4.734-1.632-5.39c-0.208-1.039-0.353-2.127-0.527-3.184c-0.064-0.432-0.24-1.167-0.24-1.6
			c0-0.128,0.832-0.128,0.96-0.128c0.287,0,0.575,0,0.88,0.031c0.063,0.513,0.031,1.025,0.079,1.521
			c0.033,0.384,0.145,0.769,0.225,1.151l0.448,2.32c0.08,0.414,0.144,0.848,0.175,1.278c0.16-0.654,0.737-4.831,0.945-5.021
			c0.126-0.112,0.352-0.129,0.495-0.129c0.225,0,0.592,0.049,0.768,0.193c0.256,0.207,1.12,5.006,1.152,5.613
			c0.208-1.183,0.224-2.527,0.383-3.774c0.049-0.399,0.417-3.423,0.688-3.567c0.096,0.016,0.176,0.031,0.272,0.031
			c0.031,0,0.079-0.016,0.111-0.016c0.224,0,0.816,0.209,1.04,0.288c-0.144,1.376-0.336,2.783-0.576,4.144
			c-0.096,0.496-1.022,5.918-1.088,6.03c-0.176,0.256-0.592,0.304-0.88,0.304C949.409-18.674,949.186-18.707,949.024-18.786z"/>
		<path fill="#001E39" d="M956.576-20.722c0,1.2-1.088,2.048-2.24,2.048c-1.968,0-2.127-2.703-2.127-4.143
			c0-1.487,0.544-3.52,2.368-3.52c1.902,0,1.839,2.303,1.839,3.742c0,0.465-1.552,0.529-2.703,0.529v0.303
			c0,0.448,0.031,1.568,0.671,1.568c0.594,0,0.641-0.816,0.737-1.248C955.521-21.442,956.576-21.265,956.576-20.722z
			 M953.761-23.584c0.159,0.032,0.319,0.032,0.479,0.032c0.304,0,0.576-0.032,0.863-0.081c0-0.288-0.159-1.247-0.56-1.247
			C953.952-24.88,953.808-24.034,953.761-23.584z"/>
		<path fill="#001E39" d="M959.039-18.898c-0.335,0.016-0.703,0.064-1.039,0.112c-0.225-0.161-0.288-0.433-0.288-0.688
			c0-0.56,0.08-1.119,0.08-1.695c0-1.296,0.063-6.862,0.111-7.678l0.128-0.176c0.336-0.097,0.704-0.081,1.056-0.16
			c0.112,0.144,0.144,0.432,0.144,0.704c0,0.768-0.064,1.743-0.064,2.575C959.168-24.577,959.039-21.41,959.039-18.898z"/>
		<path fill="#001E39" d="M962.639-24.8c-0.688,0-0.927,2.575-0.927,3.135c0,0.496,0.144,1.599,0.831,1.599
			c0.432,0,0.464-0.56,0.847-0.56c0.208,0,0.416,0.192,0.561,0.337v-0.016c0.145,0.159,0.256,0.335,0.256,0.56
			c0,0.688-1.072,1.071-1.631,1.071c-1.968,0-2.097-1.983-2.097-3.375c0-1.279,0.082-3.919,1.953-4.238
			c0.351,0,1.902,0.271,1.902,1.023c0,0.368-0.433,0.608-0.655,0.832v-0.016c-0.064,0.062-0.145,0.111-0.24,0.111
			C963.103-24.337,962.926-24.8,962.639-24.8z"/>
		<path fill="#001E39" d="M968.062-18.833c-0.096,0.048-0.256,0.144-0.385,0.144c-0.015,0-0.031,0-0.048-0.017
			c-0.096,0.017-0.208,0.033-0.304,0.033c-0.144,0-0.271,0-0.383-0.048l-0.386-0.063h0.018c-0.129-0.018-0.208-0.08-0.319-0.145
			c-1.232-0.593-1.393-1.761-1.393-3.392c0-1.312,0.368-3.599,2.062-3.599c0.208,0,0.433,0.015,0.641,0.095h-0.015
			c1.582,0.625,1.822,2.655,1.822,4.144c0,0.367-0.256,2.366-1.328,2.849L968.062-18.833L968.062-18.833z M966.19-22.145
			c0.144,0.768-0.145,2.175,1.008,2.175c0.703,0,0.527-1.663,0.527-2.255c0-0.768-0.049-2.352-0.64-2.352
			c-0.624,0-0.912,1.729-0.912,2.224C966.174-22.288,966.174-22.208,966.19-22.145z"/>
		<path fill="#001E39" d="M973.372-18.786c0.031-0.608,0.049-1.199,0.049-1.808c0-0.721-0.064-1.425-0.064-2.146
			c0-0.144,0.016-0.352,0.016-0.59c0-0.656-0.096-1.472-0.703-1.472c-0.593,0-0.641,0.575-0.641,1.04
			c0,1.486,0.208,2.959,0.208,4.431c0,0.752-0.416,0.655-0.88,0.655c-0.561,0-0.576-0.272-0.576-0.56c0-0.128,0.016-0.272,0.016-0.4
			c0-1.984-0.175-3.967-0.175-5.951c0-0.223,0.048-0.655,0.335-0.655c0.24,0,0.913-0.096,0.992,0.288
			c0.336-0.191,0.703-0.305,1.104-0.305c0.4,0,0.928,0.32,1.199,0.608h0.016c0.192-0.239,0.481-0.4,0.769-0.512h-0.017
			c0.191-0.097,0.399-0.128,0.608-0.128c0.239,0,0.463,0.048,0.688,0.16h-0.017c1.279,0.528,1.216,2.048,1.376,3.151
			c0.144,1.008,0.144,2.096,0.144,3.071c0,0.399-0.017,0.815-0.176,1.12c-0.064,0-0.128-0.017-0.176-0.017
			c-0.271,0-0.527,0.096-0.816,0.096c-0.591,0-0.56-1.022-0.56-1.615c0-0.526,0.048-1.04,0.048-1.583c0-0.4-0.048-1.647-0.159-1.984
			v0.017c-0.032-0.08-0.049-0.145-0.064-0.225h0.016c-0.063-0.24-0.207-0.703-0.494-0.703c-0.178,0-0.673,0.8-0.705,0.976
			c-0.032,0.16-0.032,0.335-0.032,0.496c0,1.488,0.144,2.975,0.192,4.463L973.372-18.786z"/>
		<path fill="#001E39" d="M983.498-20.722c0,1.2-1.089,2.048-2.24,2.048c-1.967,0-2.128-2.703-2.128-4.143
			c0-1.487,0.544-3.52,2.368-3.52c1.902,0,1.84,2.303,1.84,3.742c0,0.465-1.553,0.529-2.704,0.529v0.303
			c0,0.448,0.032,1.568,0.673,1.568c0.591,0,0.639-0.816,0.734-1.248C982.441-21.442,983.498-21.265,983.498-20.722z
			 M980.682-23.584c0.16,0.032,0.32,0.032,0.48,0.032c0.304,0,0.576-0.032,0.864-0.081c0-0.288-0.16-1.247-0.561-1.247
			C980.875-24.88,980.73-24.034,980.682-23.584z"/>
	</g>
	<line fill="none" stroke="#001E39" stroke-miterlimit="10" x1="944.045" y1="-4.48" x2="1089.613" y2="-4.48"/>
	<line fill="none" stroke="#001E39" stroke-miterlimit="10" x1="944.045" y1="3.518" x2="1089.613" y2="3.518"/>
	<line fill="none" stroke="#001E39" stroke-miterlimit="10" x1="944.045" y1="11.516" x2="994.363" y2="11.516"/>
	<line fill="none" stroke="#001E39" stroke-miterlimit="10" x1="944.045" y1="27.512" x2="1089.613" y2="27.512"/>
	<line fill="none" stroke="#001E39" stroke-miterlimit="10" x1="944.045" y1="35.511" x2="1089.613" y2="35.511"/>
	<line fill="none" stroke="#001E39" stroke-miterlimit="10" x1="944.045" y1="43.509" x2="1089.613" y2="43.509"/>
	<line fill="none" stroke="#001E39" stroke-miterlimit="10" x1="944.045" y1="51.507" x2="1089.613" y2="51.507"/>
	<line fill="none" stroke="#001E39" stroke-miterlimit="10" x1="944.045" y1="59.505" x2="1042.437" y2="59.505"/>
</g>
<g>
	<path fill-rule="evenodd" clip-rule="evenodd" fill="#001E39" d="M355.977,18.219c0.899,0,1.797,0,2.696,0
		c5.463,0.586,9.222,2.878,12.4,5.75c1.889-7.527,15.8-4.17,12.4,4.673c-4.492,5.931-13.785,7.062-18.151,13.119
		c-5.129,5.354-8.836,12.13-9.884,21.565c0,1.977,0,3.954,0,5.93c1.065,9.418,4.729,16.237,9.884,21.565
		c4.328,6.154,13.857,7.107,18.151,13.298c1.284,4.255-1.186,7.612-4.314,8.626c-4.333,0.888-7.067-1.296-8.267-4.133
		c-3.667,4.123-10.715,6.912-18.51,5.211c-7.746-2.617-12.98-7.746-14.197-16.893c-0.039-1.716,0.001-3.353,0.18-4.852
		c-11.613-4.081-19.396-11.992-19.408-27.676c1.221-11.538,7.318-18.2,15.634-22.643c1.389-0.29,2.382-0.974,3.774-1.258
		C337.418,26.964,344.579,20.008,355.977,18.219z"/>
	<path fill-rule="evenodd" clip-rule="evenodd" fill="#001E39" d="M420.312,18.219c0.898,0,1.797,0,2.695,0
		c11.386,1.804,18.529,8.771,17.611,22.284c1.581,0.396,2.904,1.049,4.313,1.617c8.908,4.934,15.814,12.815,14.916,26.957
		c-1.728,12.35-8.675,19.479-19.229,23.003c0.072,1.605,0.275,3.079,0.18,4.852c-0.726,13.298-16.207,21.901-29.113,14.737
		c-1.231-1.044-2.605-1.947-3.773-3.055c-0.958,5.625-11.205,5.474-12.399,0.18c-0.528-1.331-0.474-3.691,0-5.032
		c4.798-5.686,13.91-7.056,18.33-13.119c5.067-5.417,8.766-12.201,9.705-21.744c0.469-11.911-3.391-19.492-8.627-25.699
		c-2.665-3.085-5.744-5.757-9.524-7.728c-3.481-2.269-8.292-3.21-10.063-7.188c-2.687-9.123,10.78-11.328,12.76-4.313
		C410.99,20.876,414.986,18.882,420.312,18.219z"/>
	<path fill-rule="evenodd" clip-rule="evenodd" fill="#001E39" d="M388.504,45.535c-0.032-0.153,0.07-0.17,0.18-0.18
		c13.428,0.77,20.488,7.905,21.745,20.847c-1.116,12.901-8.064,19.97-21.025,21.026c-12.767-1.131-19.725-8.072-20.847-20.847
		c1.011-12.466,7.563-19.393,19.588-20.846C388.265,45.535,388.385,45.535,388.504,45.535z"/>
	<path fill-rule="evenodd" clip-rule="evenodd" fill="#001E39" d="M308.713,126.044c1.257,2.742,0.719,6.903,0.719,10.603
		c0,3.841,0,7.795,0,11.322c-0.156,1.055,1.409,1.144,0.719,2.156c-3.413,0.37-2.157-6.559-2.157-9.883c0-4.173,0-8.711,0-12.22
		c0.113-0.781-1.286-0.979-0.719-1.618c0-0.12,0-0.24,0-0.359C307.629,125.688,308.302,125.93,308.713,126.044z"/>
	<path fill-rule="evenodd" clip-rule="evenodd" fill="#001E39" d="M371.791,126.224c0.176,1.135-0.917,1-0.899,1.977
		c0,6.529,0,13.059,0,19.588c-0.171,1.125,1.427,1.254,0.72,2.336c-1.928,0.705-2.344-1.591-2.157-3.594
		c-1.079,1.917-2.706,3.286-5.212,3.775c-11.673,1.598-11.853-17.712-1.258-17.433c3.212,0.143,5.16,1.549,6.47,3.595
		C369.992,133.025,367.874,125.096,371.791,126.224z M361.188,134.67c-1.114,0.265-1.804,0.952-2.696,1.438
		c-3.374,3.25-1.992,11.087,2.156,12.4c0.46,0.019,0.857,0.102,1.079,0.36c8.655,1.626,10.004-11.675,3.953-14.018
		c-1.073-0.364-2.454-0.421-3.953-0.359c-0.11,0.01-0.213,0.027-0.18,0.18C361.428,134.67,361.308,134.67,361.188,134.67z"/>
	<path fill-rule="evenodd" clip-rule="evenodd" fill="#001E39" d="M298.83,150.484c-0.899,0-1.797,0-2.696,0
		c-4.149-1.003-6.713-3.59-7.548-7.907c0-0.599,0-1.198,0-1.797c0.31-1.188,0.659-2.335,1.078-3.414
		c1.235-1.581,2.533-3.098,4.493-3.954c0.674-0.164,1.27-0.407,1.977-0.54c1.306-0.08,1.656-0.012,3.055,0
		c1.398,0.713,4.22,0.913,3.773,2.875c-1.604,0.381-2.58-1.355-4.313-1.437c-11.182-1.603-11.089,16.324,0,14.735
		c1.774,0.015,3.046-2.111,4.493-1.258C302.835,149.817,300.479,149.798,298.83,150.484z"/>
	<path fill-rule="evenodd" clip-rule="evenodd" fill="#001E39" d="M324.528,150.484c-0.958,0-1.917,0-2.875,0
		c-3.597-0.933-6.958-3.518-7.368-7.728c-0.356-3.656,1.315-6.819,4.312-8.806c5.739-3.048,12.512,0.573,13.299,6.29
		C332.217,146.434,329.111,149.197,324.528,150.484z M321.113,134.49c-1.443,0.474-2.574,1.26-3.594,2.157
		c-1.057,1.578-2.042,3.229-1.797,6.11c0.787,3.466,2.875,5.631,6.469,6.29c5.678-0.013,8.462-2.919,8.267-8.805
		c-0.699-2.476-2.14-4.21-4.133-5.392c-0.446,0.027-0.746-0.093-0.898-0.359c-1.097-0.221-2.442-0.194-3.774-0.179
		c-0.109,0.01-0.212,0.026-0.18,0.179C321.353,134.49,321.233,134.49,321.113,134.49z"/>
	<path fill-rule="evenodd" clip-rule="evenodd" fill="#001E39" d="M385.808,150.484c-0.958,0-1.916,0-2.875,0
		c-4.562-1.308-7.704-4.037-7.368-10.243c0.899-3.713,3.068-6.157,6.649-7.188c3.349-0.649,7.417,0.121,8.267,3.055
		c-0.281,0.619-0.605,1.192-1.259,1.438c-2.078-0.018-2.585-1.608-4.672-1.617c-7.56-0.517-7.628,12.656,0.719,11.322
		c1.639-0.497,4.392-2.788,5.211,0C389.983,149.387,387.739,149.779,385.808,150.484z"/>
	<path fill-rule="evenodd" clip-rule="evenodd" fill="#001E39" d="M400.904,150.484c-0.839,0-1.679,0-2.517,0c0-0.06,0-0.12,0-0.179
		c-2.334-0.301-3.767-1.505-4.672-3.235c-0.753-1.159-0.623-3.448-0.18-4.853c0.753-1.164,1.667-2.165,3.055-2.695
		c1.157-0.521,2.744-0.611,4.493-0.54c1.089-0.092,2.572,1.209,3.056,0.54c-0.077-1.542-0.393-2.843-1.618-3.235
		c-2.314-1.586-6.539,1.663-7.369-1.079c0.657-3.202,5.914-2.456,8.807-1.977c4.427,1.144,3.32,7.822,3.414,13.298
		c-0.075,1.197,1.517,1.542,0.72,2.875c-1.023,1.872-3.877,0.487-4.134-1.078C403.489,149.595,402.088,149.931,400.904,150.484z
		 M396.591,143.296c-1.567,5.901,8.943,4.999,7.549-0.719C402.333,141.014,397.631,141.144,396.591,143.296z"/>
	<path fill-rule="evenodd" clip-rule="evenodd" fill="#001E39" d="M428.759,148.867c-0.151,2.029-3.261,1.594-3.953,0.359
		c-0.634-3.62,0.578-9.085-1.079-11.681c-0.991-1.06-3.108-1.903-5.21-1.258c-4.579,0.874-2.777,8.126-3.416,12.939
		c-0.652,1.253-3.615,1.602-3.953-0.18c-0.244-1.261,0.729-1.307,0.898-2.156c-0.277-4.155,0.737-9.602-0.898-12.4
		c0.132-0.946,0.844-1.312,1.617-1.618c1.32,0.238,2.374,0.743,2.517,2.157c1.737-2.247,7.911-3.202,10.603-0.54
		c2.378,2.355,1.987,7.478,1.977,12.221C427.828,147.761,428.98,147.626,428.759,148.867z"/>
	<path fill-rule="evenodd" clip-rule="evenodd" fill="#001E39" d="M449.604,149.046c-0.372,1.748-3.277,1.457-3.953,0.18
		c-0.729-2.685-0.197-6.632-0.359-9.884c-0.522-2.361-2.879-3.819-5.93-3.055c-4.621,0.771-2.75,8.032-3.415,12.759
		c-0.476,1.43-3.609,1.835-3.953,0c-0.218-1.235,0.654-1.381,0.898-2.156c0-3.415,0-6.829,0-10.243
		c-0.058-1.081-1.222-1.054-0.898-2.517c0.298-0.6,0.78-1.015,1.437-1.258c1.555,0.125,2.503,0.853,2.696,2.336
		c2.168-3.253,9.197-3.035,11.321,0.18c1.533,2.66,1.261,7.126,1.259,11.322C448.756,147.739,449.805,147.768,449.604,149.046z"/>
	<path fill-rule="evenodd" clip-rule="evenodd" fill="#001E39" d="M462.364,150.484c-0.958,0-1.917,0-2.876,0
		c-4.581-1.348-7.763-4.097-7.367-10.423c0.629-7.874,13.565-9.732,16.533-2.696C471.678,143.211,467.82,149.721,462.364,150.484z
		 M456.435,138.084c-0.979,1.335-1.454,3.923-0.719,5.93c1.416,4.102,8.996,4.094,10.423,0c1.235-4.678-1.209-8.389-6.29-7.907
		c-0.109,0.01-0.213,0.027-0.18,0.18C458.097,136.393,457.396,137.368,456.435,138.084z"/>
	<path fill-rule="evenodd" clip-rule="evenodd" fill="#001E39" d="M490.04,149.406c-0.475,0.926-2.219,1.174-3.235,0.54
		c-2.373-3.138,0.982-12.004-3.055-13.478c-3.072-1.095-6.144,0.275-6.83,2.695c-0.751,3.202,0.761,8.667-1.077,10.783
		c-0.978,0.594-2.851,0.476-3.234-0.54c-0.266-1.403,0.436-1.84,0.898-2.516c0-3.415,0-6.829,0-10.243
		c-0.211-0.988-1.261-1.135-0.898-2.696c0.275-0.562,0.896-0.781,1.437-1.079c1.563,0.115,2.461,0.895,2.696,2.336
		c1.779-2.808,7.52-3.123,10.244-0.898c2.706,2.145,2.134,7.57,2.155,12.4C489.415,147.635,490.379,147.869,490.04,149.406z"/>
	<path fill-rule="evenodd" clip-rule="evenodd" fill="#001E39" d="M337.107,133.412c0.993,6.794-1.79,17.365,7.907,15.455
		c2.188-0.687,3.65-2.101,4.133-4.493c0.589-3.64-1.62-11.875,2.157-11.142c0.626,0.898-0.793,1.056-0.719,1.977
		c0,4.313,0,8.626,0,12.939c-0.002,0.848,1.376,1.047,0.719,1.977c-1.58,0.648-2.401-0.928-2.157-2.695
		c-1.405,3.18-9.68,4.067-11.86,0.359c-1.8-2.812-1.145-8.08-1.258-12.58c0.089-0.988-1.026-0.772-0.719-1.977
		C335.867,132.697,336.491,133.099,337.107,133.412z"/>
</g>
<rect x="833.145" y="-156.773" fill="none" stroke="#001E39" stroke-miterlimit="10" width="326.553" height="244"/>
<image overflow="visible" width="861" height="522" xlink:href="../../../../../../Desktop/Screen Shot 2015-05-28 at 5.25.33 pm.png"  transform="matrix(0.4072 0 0 0.4072 32.4175 187.5229)">
</image>
<image overflow="visible" width="861" height="522" xlink:href="../../../../../../Desktop/Screen Shot 2015-05-28 at 5.24.43 pm.png"  transform="matrix(0.4059 0 0 0.4059 400 187.5225)">
</image>
<rect x="13.5" y="3.518" fill="none" stroke="#001E39" stroke-width="2" stroke-miterlimit="10" width="262" height="166.982"/>
<line fill="none" stroke="#001E39" stroke-width="0.5" stroke-miterlimit="10" x1="13.5" y1="32.845" x2="275.5" y2="32.845"/>
<line fill="none" stroke="#001E39" stroke-miterlimit="10" x1="44.5" y1="32.845" x2="44.5" y2="170.5"/>
<rect x="44.5" y="10.5" fill="none" width="206.5" height="12.5"/>
<text transform="matrix(1 0 0 1 44.5 16.6738)"><tspan x="0" y="0" font-family="'Karla-Bold'" font-size="9">My Website</tspan><tspan x="49.688" y="0" font-family="'Karla-Regular'" font-size="9"> at plain-manatee.cloudvent.net</tspan></text>
<rect x="44.5" y="20.5" fill="none" width="206.5" height="12.5"/>
<text transform="matrix(1 0 0 1 44.5 25.9482)" font-family="'Karla-Regular'" font-size="8">Editor / index.html</text>
<rect x="21.5" y="10.5" opacity="0.15" width="16.5" height="16.5"/>
<rect x="44.5" y="33" fill="#001E39" width="231" height="137.5"/>
<g opacity="0.2">
	<path fill-rule="evenodd" clip-rule="evenodd" fill="#001E39" d="M26.79,14.5c0.08,0,0.159,0,0.238,0
		c0.483,0.052,0.816,0.254,1.097,0.509c0.167-0.666,1.398-0.369,1.097,0.413c-0.397,0.524-1.22,0.625-1.606,1.161
		c-0.454,0.474-0.781,1.073-0.874,1.907c0,0.175,0,0.35,0,0.525c0.094,0.833,0.418,1.436,0.874,1.908
		c0.383,0.544,1.226,0.628,1.606,1.176c0.114,0.376-0.105,0.673-0.382,0.763c-0.383,0.079-0.625-0.115-0.731-0.366
		c-0.324,0.365-0.948,0.611-1.637,0.461c-0.686-0.231-1.148-0.685-1.256-1.494c-0.004-0.151,0-0.296,0.016-0.429
		c-1.027-0.361-1.716-1.061-1.717-2.448c0.108-1.021,0.647-1.61,1.383-2.003c0.123-0.025,0.211-0.086,0.334-0.111
		C25.148,15.273,25.782,14.658,26.79,14.5z"/>
	<path fill-rule="evenodd" clip-rule="evenodd" fill="#001E39" d="M32.481,14.5c0.079,0,0.159,0,0.238,0
		c1.007,0.16,1.639,0.776,1.558,1.971c0.14,0.035,0.257,0.093,0.382,0.143c0.788,0.437,1.399,1.133,1.319,2.384
		c-0.153,1.093-0.768,1.723-1.701,2.035c0.007,0.142,0.024,0.272,0.016,0.429c-0.064,1.176-1.434,1.938-2.575,1.304
		c-0.109-0.092-0.231-0.172-0.333-0.271c-0.085,0.498-0.992,0.484-1.098,0.016c-0.046-0.118-0.042-0.327,0-0.445
		c0.425-0.503,1.231-0.625,1.622-1.161c0.448-0.479,0.776-1.079,0.859-1.923c0.041-1.054-0.3-1.724-0.763-2.273
		c-0.236-0.273-0.508-0.509-0.842-0.683c-0.309-0.201-0.734-0.285-0.89-0.636c-0.238-0.807,0.953-1.002,1.128-0.381
		C31.656,14.734,32.01,14.558,32.481,14.5z"/>
	<path fill-rule="evenodd" clip-rule="evenodd" fill="#001E39" d="M29.667,16.916c-0.002-0.014,0.006-0.016,0.016-0.016
		c1.188,0.068,1.813,0.699,1.924,1.844c-0.099,1.142-0.714,1.767-1.86,1.86c-1.129-0.1-1.745-0.714-1.844-1.844
		c0.09-1.103,0.669-1.715,1.733-1.844C29.646,16.916,29.657,16.916,29.667,16.916z"/>
</g>
</svg>
